<?xml version="1.0" encoding="UTF-8" standalone="no"?>
<!DOCTYPE svg PUBLIC "-//W3C//DTD SVG 1.1//EN" "http://www.w3.org/Graphics/SVG/1.1/DTD/svg11.dtd">
<svg version="1.1" xmlns="http://www.w3.org/2000/svg" xmlns:xlink="http://www.w3.org/1999/xlink" preserveAspectRatio="xMidYMid meet" viewBox="0 0 640 640" width="640" height="640"><defs><path d="M38.2 462.61L309.89 632.99L581.59 462.61L581.59 184.8L309.89 7.01L38.2 184.8L38.2 462.61Z" id="b4PgR2dZp"></path><path d="M358.81 284.07C372.77 270.11 379.86 253.02 379.86 233.28C379.86 213.54 372.78 196.45 358.81 182.48C344.84 168.52 327.75 161.44 308.01 161.44C288.27 161.44 271.18 168.52 257.21 182.48C243.25 196.45 236.17 213.54 236.17 233.28C236.17 253.02 243.25 270.11 257.21 284.08C271.19 298.04 288.28 305.12 308.01 305.12C327.75 305.12 344.84 298.04 358.81 284.07ZM308.01 178.92C323.16 178.92 335.73 184.13 346.45 194.84C357.16 205.56 362.38 218.13 362.38 233.28C362.38 248.42 357.16 261 346.45 271.71C335.73 282.43 323.16 287.64 308.01 287.64C292.87 287.64 280.3 282.43 269.58 271.71C258.86 261 253.65 248.42 253.65 233.28C253.65 218.13 258.86 205.56 269.58 194.84C280.29 184.13 292.86 178.92 308.01 178.92Z" id="a3xaMlNlE"></path><path d="M431.3 371.96C430.09 365.21 428.53 358.83 426.67 353.01C424.74 346.98 422.12 341.03 418.88 335.33C415.51 329.42 411.56 324.26 407.13 320.02C402.49 315.59 396.82 312.02 390.26 309.42C383.72 306.83 376.47 305.52 368.71 305.52C365.67 305.52 362.72 306.77 357.04 310.47C353.54 312.76 349.44 315.4 344.87 318.32C340.97 320.81 335.67 323.14 329.13 325.25C322.76 327.31 316.28 328.36 309.88 328.36C303.49 328.36 297.02 327.31 290.63 325.25C284.1 323.14 278.81 320.81 274.91 318.32C270.38 315.43 266.28 312.79 262.73 310.47C257.05 306.77 254.1 305.52 251.06 305.52C243.3 305.52 236.06 306.83 229.52 309.42C222.96 312.02 217.28 315.59 212.64 320.03C208.21 324.27 204.26 329.42 200.9 335.33C197.66 341.03 195.04 346.98 193.11 353.01C191.25 358.84 189.69 365.21 188.48 371.96C187.27 378.64 186.46 384.98 186.06 390.81C185.66 396.51 185.46 402.43 185.46 408.42C185.46 423.99 190.41 436.6 200.17 445.9C209.81 455.07 222.57 459.72 238.08 459.72C252.44 459.72 367.34 459.72 381.71 459.72C397.22 459.72 409.97 455.07 419.61 445.9C429.37 436.61 434.32 424 434.32 408.42C434.32 402.41 434.12 396.48 433.72 390.8C433.32 384.99 432.5 378.65 431.3 371.96ZM381.7 442.24C367.34 442.24 252.44 442.24 238.08 442.24C227.05 442.24 218.59 439.29 212.23 433.23C205.98 427.29 202.94 419.17 202.94 408.42C202.94 402.83 203.13 397.32 203.5 392.02C203.86 386.82 204.59 381.11 205.68 375.04C206.76 369.05 208.13 363.43 209.76 358.34C211.32 353.46 213.45 348.62 216.1 343.97C218.62 339.53 221.52 335.72 224.73 332.65C227.73 329.78 231.5 327.44 235.95 325.67C240.07 324.04 244.7 323.15 249.72 323.02C250.33 323.34 251.42 323.96 253.19 325.12C256.78 327.46 260.92 330.13 265.5 333.05C270.66 336.34 277.31 339.32 285.26 341.88C293.38 344.51 301.66 345.84 309.89 345.84C318.11 345.84 326.39 344.51 334.51 341.88C342.46 339.31 349.11 336.34 354.28 333.05C358.96 330.05 362.99 327.46 366.58 325.12C368.35 323.97 369.44 323.34 370.05 323.02C375.08 323.15 379.7 324.04 383.82 325.67C388.27 327.44 392.05 329.79 395.05 332.65C398.25 335.72 401.15 339.53 403.68 343.97C406.32 348.62 408.46 353.46 410.02 358.34C411.65 363.43 413.02 369.05 414.1 375.04C415.19 381.12 415.92 386.83 416.28 392.02C416.28 392.02 416.28 392.02 416.28 392.02C416.65 397.3 416.84 402.82 416.84 408.42C416.84 419.17 413.81 427.29 407.56 433.23C401.19 439.29 392.73 442.24 381.7 442.24Z" id="aX24cj5bb"></path></defs><g><g><g><use xlink:href="#b4PgR2dZp" opacity="1" fill="#474747" fill-opacity="1"></use><g><use xlink:href="#b4PgR2dZp" opacity="1" fill-opacity="0" stroke="#000000" stroke-width="1" stroke-opacity="0"></use></g><g></g></g><g><use xlink:href="#a3xaMlNlE" opacity="1" fill="#ffffff" fill-opacity="1"></use><g><use xlink:href="#a3xaMlNlE" opacity="1" fill-opacity="0" stroke="#874444" stroke-width="1" stroke-opacity="0"></use></g></g><g><use xlink:href="#aX24cj5bb" opacity="1" fill="#ffffff" fill-opacity="1"></use><g><use xlink:href="#aX24cj5bb" opacity="1" fill-opacity="0" stroke="#874444" stroke-width="1" stroke-opacity="0"></use></g></g></g></g></svg>