<?xml version="1.0" encoding="UTF-8" standalone="no"?>
<!DOCTYPE svg PUBLIC "-//W3C//DTD SVG 1.1//EN" "http://www.w3.org/Graphics/SVG/1.1/DTD/svg11.dtd">
<svg version="1.1" xmlns="http://www.w3.org/2000/svg" xmlns:xlink="http://www.w3.org/1999/xlink" preserveAspectRatio="xMidYMid meet" viewBox="0 0 640 640" width="640" height="640"><defs><path d="M254.65 207.73L316.53 246.53L378.42 207.73L378.42 144.45L316.53 103.96L254.65 144.45L254.65 207.73Z" id="a7PVqYdcR"></path><path d="M331.59 162.92C335.89 158.62 338.07 153.36 338.07 147.29C338.07 141.21 335.89 135.95 331.59 131.65C327.29 127.35 322.03 125.18 315.96 125.18C309.88 125.18 304.62 127.35 300.32 131.65C296.02 135.95 293.84 141.21 293.84 147.29C293.84 153.36 296.02 158.62 300.32 162.92C304.62 167.22 309.88 169.4 315.96 169.4C322.03 169.4 327.29 167.22 331.59 162.92ZM315.96 130.56C320.62 130.56 324.49 132.16 327.78 135.46C331.08 138.76 332.69 142.63 332.69 147.29C332.69 151.95 331.08 155.82 327.78 159.11C324.49 162.41 320.62 164.02 315.96 164.02C311.3 164.02 307.43 162.41 304.13 159.11C300.83 155.82 299.22 151.95 299.22 147.29C299.22 142.63 300.83 138.76 304.13 135.46C307.42 132.16 311.29 130.56 315.96 130.56Z" id="b3EeiuBwsx"></path><path d="M353.9 189.96C353.53 187.89 353.05 185.93 352.47 184.13C351.88 182.28 351.07 180.45 350.07 178.69C349.04 176.87 347.82 175.29 346.46 173.98C345.03 172.62 343.29 171.52 341.27 170.72C339.25 169.92 337.02 169.52 334.64 169.52C333.7 169.52 332.79 169.9 331.04 171.04C329.97 171.75 328.71 172.56 327.3 173.46C326.1 174.22 324.47 174.94 322.46 175.59C320.49 176.23 318.5 176.55 316.53 176.55C314.57 176.55 312.57 176.23 310.61 175.59C308.6 174.94 306.97 174.22 305.77 173.46C304.37 172.57 303.11 171.76 302.02 171.04C300.27 169.9 299.36 169.52 298.43 169.52C296.04 169.52 293.81 169.92 291.8 170.72C289.78 171.52 288.03 172.62 286.6 173.98C285.24 175.29 284.02 176.87 282.99 178.69C281.99 180.45 281.19 182.28 280.59 184.13C280.02 185.93 279.54 187.89 279.17 189.96C278.8 192.02 278.55 193.97 278.42 195.77C278.3 197.52 278.24 199.34 278.24 201.19C278.24 205.98 279.76 209.86 282.77 212.72C285.73 215.54 289.66 216.98 294.43 216.98C298.85 216.98 334.22 216.98 338.64 216.98C343.41 216.98 347.33 215.54 350.3 212.72C353.31 209.86 354.83 205.98 354.83 201.19C354.83 199.34 354.77 197.51 354.64 195.77C354.52 193.98 354.27 192.03 353.9 189.96ZM338.63 211.6C334.21 211.6 298.85 211.6 294.43 211.6C291.04 211.6 288.44 210.69 286.48 208.82C284.55 206.99 283.62 204.5 283.62 201.19C283.62 199.47 283.68 197.77 283.79 196.14C283.9 194.54 284.13 192.78 284.46 190.92C284.79 189.07 285.22 187.34 285.72 185.77C286.2 184.27 286.85 182.78 287.67 181.35C288.44 179.99 289.34 178.81 290.32 177.87C291.25 176.99 292.41 176.26 293.78 175.72C295.05 175.22 296.47 174.95 298.02 174.9C298.2 175 298.54 175.2 299.08 175.55C300.19 176.27 301.46 177.09 302.87 177.99C304.46 179.01 306.51 179.92 308.95 180.71C311.45 181.52 314 181.93 316.53 181.93C319.06 181.93 321.61 181.52 324.11 180.71C326.56 179.92 328.6 179.01 330.19 177.99C331.64 177.07 332.88 176.27 333.98 175.55C334.53 175.2 334.86 175 335.05 174.9C336.6 174.95 338.02 175.22 339.29 175.72C340.66 176.26 341.82 176.99 342.74 177.87C343.73 178.81 344.62 179.98 345.4 181.35C346.21 182.78 346.87 184.27 347.35 185.77C347.85 187.34 348.27 189.07 348.6 190.91C348.94 192.79 349.17 194.54 349.28 196.14C349.28 196.14 349.28 196.14 349.28 196.14C349.39 197.77 349.45 199.46 349.45 201.19C349.45 204.5 348.51 206.99 346.59 208.82C344.63 210.69 342.03 211.6 338.63 211.6Z" id="e1FoRx2LOK"></path></defs><g><g><g><use xlink:href="#a7PVqYdcR" opacity="1" fill="#474747" fill-opacity="1"></use><g><use xlink:href="#a7PVqYdcR" opacity="1" fill-opacity="0" stroke="#000000" stroke-width="1" stroke-opacity="0"></use></g><g></g></g><g><use xlink:href="#b3EeiuBwsx" opacity="1" fill="#ffffff" fill-opacity="1"></use><g><use xlink:href="#b3EeiuBwsx" opacity="1" fill-opacity="0" stroke="#874444" stroke-width="1" stroke-opacity="0"></use></g></g><g><use xlink:href="#e1FoRx2LOK" opacity="1" fill="#ffffff" fill-opacity="1"></use><g><use xlink:href="#e1FoRx2LOK" opacity="1" fill-opacity="0" stroke="#874444" stroke-width="1" stroke-opacity="0"></use></g></g></g></g></svg>