<?xml version="1.0" encoding="UTF-8" standalone="no"?>
<!DOCTYPE svg PUBLIC "-//W3C//DTD SVG 1.1//EN" "http://www.w3.org/Graphics/SVG/1.1/DTD/svg11.dtd">
<svg version="1.1" xmlns="http://www.w3.org/2000/svg" xmlns:xlink="http://www.w3.org/1999/xlink" preserveAspectRatio="xMidYMid meet" viewBox="0 0 640 640" width="640" height="640"><defs><path d="M38.2 462.61L309.89 632.99L581.59 462.61L581.59 184.8L309.89 7.01L38.2 184.8L38.2 462.61Z" id="b4PgR2dZp"></path><path d="M375.99 265.87C394.86 247 404.43 223.91 404.43 197.23C404.43 170.56 394.86 147.47 375.99 128.59C357.11 109.72 334.02 100.16 307.35 100.16C280.67 100.16 257.58 109.72 238.71 128.6C219.84 147.47 210.27 170.56 210.27 197.23C210.27 223.91 219.84 247 238.71 265.87C257.59 284.74 280.68 294.31 307.35 294.31C334.02 294.31 357.12 284.74 375.99 265.87ZM307.35 123.78C327.81 123.78 344.8 130.82 359.29 145.3C373.77 159.78 380.81 176.77 380.81 197.23C380.81 217.7 373.77 234.68 359.29 249.17C344.8 263.65 327.81 270.69 307.35 270.69C286.89 270.69 269.9 263.65 255.42 249.17C240.93 234.69 233.89 217.7 233.89 197.23C233.89 176.77 240.93 159.78 255.42 145.3C269.9 130.82 286.88 123.78 307.35 123.78Z" id="br1xDQl4W"></path><path d="M473.95 384.62C472.31 375.5 470.2 366.89 467.68 359.01C465.08 350.87 461.54 342.83 457.15 335.13C452.61 327.14 447.27 320.17 441.28 314.45C435.02 308.45 427.35 303.63 418.48 300.12C409.64 296.62 399.85 294.85 389.37 294.85C385.26 294.85 381.28 296.54 373.6 301.54C368.87 304.63 363.33 308.19 357.16 312.14C351.88 315.5 344.73 318.65 335.89 321.51C327.27 324.3 318.52 325.71 309.88 325.71C301.25 325.71 292.49 324.3 283.87 321.51C275.04 318.66 267.89 315.51 262.62 312.14C256.5 308.23 250.97 304.67 246.17 301.54C238.49 296.54 234.51 294.85 230.39 294.85C219.91 294.85 210.12 296.62 201.29 300.12C192.43 303.63 184.75 308.45 178.48 314.45C172.49 320.18 167.16 327.14 162.62 335.13C158.24 342.83 154.7 350.87 152.09 359.01C149.57 366.89 147.47 375.5 145.83 384.62C144.21 393.65 143.11 402.22 142.57 410.09C142.03 417.79 141.76 425.8 141.76 433.89C141.76 454.93 148.45 471.97 161.64 484.53C174.66 496.92 191.89 503.21 212.86 503.21C232.26 503.21 387.52 503.21 406.93 503.21C427.89 503.21 445.12 496.92 458.15 484.53C471.34 471.98 478.03 454.94 478.03 433.89C478.02 425.77 477.75 417.76 477.21 410.08C476.67 402.23 475.57 393.66 473.95 384.62ZM406.93 479.59C387.52 479.59 232.26 479.59 212.86 479.59C197.95 479.59 186.53 475.61 177.92 467.42C169.48 459.38 165.38 448.42 165.38 433.89C165.38 426.34 165.63 418.89 166.13 411.73C166.61 404.7 167.61 396.99 169.08 388.79C170.53 380.69 172.38 373.1 174.59 366.22C176.7 359.62 179.58 353.09 183.15 346.8C186.56 340.8 190.49 335.66 194.82 331.51C198.87 327.63 203.97 324.46 209.99 322.08C215.55 319.88 221.8 318.67 228.59 318.49C229.41 318.93 230.89 319.77 233.27 321.33C238.13 324.49 243.72 328.1 249.91 332.05C256.89 336.5 265.87 340.52 276.61 343.98C287.58 347.53 298.77 349.33 309.88 349.33C320.99 349.33 332.19 347.53 343.16 343.98C353.9 340.51 362.89 336.5 369.87 332.05C376.2 328 381.64 324.49 386.5 321.33C388.88 319.77 390.35 318.93 391.18 318.49C397.97 318.67 404.22 319.88 409.79 322.08C415.8 324.46 420.91 327.64 424.96 331.51C429.28 335.65 433.21 340.8 436.62 346.8C440.2 353.09 443.08 359.62 445.19 366.21C447.39 373.1 449.25 380.7 450.7 388.79C452.17 397 453.17 404.72 453.65 411.73C453.65 411.73 453.65 411.74 453.65 411.74C454.15 418.87 454.4 426.32 454.41 433.89C454.4 448.42 450.3 459.38 441.86 467.42C433.25 475.61 421.83 479.59 406.93 479.59Z" id="a5L8NqdG6h"></path></defs><g><g><g><use xlink:href="#b4PgR2dZp" opacity="1" fill="#474747" fill-opacity="1"></use><g><use xlink:href="#b4PgR2dZp" opacity="1" fill-opacity="0" stroke="#000000" stroke-width="1" stroke-opacity="0"></use></g><g></g></g><g><use xlink:href="#br1xDQl4W" opacity="1" fill="#ffffff" fill-opacity="1"></use><g><use xlink:href="#br1xDQl4W" opacity="1" fill-opacity="0" stroke="#874444" stroke-width="1" stroke-opacity="0"></use></g></g><g><use xlink:href="#a5L8NqdG6h" opacity="1" fill="#ffffff" fill-opacity="1"></use><g><use xlink:href="#a5L8NqdG6h" opacity="1" fill-opacity="0" stroke="#874444" stroke-width="1" stroke-opacity="0"></use></g></g></g></g></svg>